<mxfile host="app.diagrams.net" modified="2022-04-06T12:21:46.748Z" agent="5.0 (X11; Linux x86_64) AppleWebKit/537.36 (KHTML, like Gecko) Chrome/99.0.4844.51 Safari/537.36 OPR/85.0.4341.18" etag="yBppyUIFK2HwtebHXmwX" version="17.2.3" type="github">
  <diagram id="yuMjDYG6piG0xqsREV_x" name="GitFlow GB-PGI">
    <mxGraphModel dx="2022" dy="750" grid="1" gridSize="10" guides="1" tooltips="1" connect="1" arrows="1" fold="1" page="1" pageScale="1" pageWidth="827" pageHeight="1169" math="0" shadow="0">
      <root>
        <mxCell id="0" />
        <mxCell id="1" parent="0" />
        <mxCell id="OGek03VZuu6lh82kYxaj-23" value="" style="rounded=0;whiteSpace=wrap;html=1;strokeWidth=1;fillColor=#e1d5e7;strokeColor=#9673a6;" parent="1" vertex="1">
          <mxGeometry x="40" y="360" width="1160" height="120" as="geometry" />
        </mxCell>
        <mxCell id="OGek03VZuu6lh82kYxaj-20" value="" style="rounded=0;whiteSpace=wrap;html=1;strokeWidth=1;fillColor=#d5e8d4;strokeColor=#82b366;" parent="1" vertex="1">
          <mxGeometry x="40" y="40" width="1160" height="120" as="geometry" />
        </mxCell>
        <mxCell id="OGek03VZuu6lh82kYxaj-28" style="edgeStyle=orthogonalEdgeStyle;rounded=0;orthogonalLoop=1;jettySize=auto;html=1;entryX=0;entryY=0.5;entryDx=0;entryDy=0;strokeWidth=2;dashed=1;" parent="1" source="OGek03VZuu6lh82kYxaj-1" target="OGek03VZuu6lh82kYxaj-27" edge="1">
          <mxGeometry relative="1" as="geometry" />
        </mxCell>
        <mxCell id="OGek03VZuu6lh82kYxaj-1" value="MAIN" style="rounded=1;whiteSpace=wrap;html=1;fillColor=#d5e8d4;strokeColor=#82b366;fontStyle=1;strokeWidth=2;" parent="1" vertex="1">
          <mxGeometry x="60" y="70" width="120" height="60" as="geometry" />
        </mxCell>
        <mxCell id="OGek03VZuu6lh82kYxaj-21" value="" style="rounded=0;whiteSpace=wrap;html=1;strokeWidth=1;fillColor=#dae8fc;strokeColor=#6c8ebf;" parent="1" vertex="1">
          <mxGeometry x="40" y="200" width="1160" height="120" as="geometry" />
        </mxCell>
        <mxCell id="OGek03VZuu6lh82kYxaj-22" value="HML" style="rounded=1;whiteSpace=wrap;html=1;fillColor=#dae8fc;strokeColor=#6c8ebf;fontStyle=1;strokeWidth=2;" parent="1" vertex="1">
          <mxGeometry x="60" y="230" width="120" height="60" as="geometry" />
        </mxCell>
        <mxCell id="OGek03VZuu6lh82kYxaj-24" value="DEV" style="rounded=1;whiteSpace=wrap;html=1;fillColor=#e1d5e7;strokeColor=#9673a6;fontStyle=1;strokeWidth=2;" parent="1" vertex="1">
          <mxGeometry x="60" y="390" width="120" height="60" as="geometry" />
        </mxCell>
        <mxCell id="OGek03VZuu6lh82kYxaj-25" value="" style="rounded=0;whiteSpace=wrap;html=1;strokeWidth=1;fillColor=#ffe6cc;strokeColor=#d79b00;" parent="1" vertex="1">
          <mxGeometry x="40" y="520" width="1160" height="120" as="geometry" />
        </mxCell>
        <mxCell id="OGek03VZuu6lh82kYxaj-26" value="SPRINT" style="rounded=1;whiteSpace=wrap;html=1;fillColor=#ffe6cc;strokeColor=#d79b00;fontStyle=1;strokeWidth=2;" parent="1" vertex="1">
          <mxGeometry x="60" y="550" width="120" height="60" as="geometry" />
        </mxCell>
        <mxCell id="OGek03VZuu6lh82kYxaj-40" style="edgeStyle=orthogonalEdgeStyle;rounded=0;orthogonalLoop=1;jettySize=auto;html=1;entryX=0.5;entryY=0;entryDx=0;entryDy=0;dashed=1;strokeWidth=2;" parent="1" source="OGek03VZuu6lh82kYxaj-27" target="OGek03VZuu6lh82kYxaj-29" edge="1">
          <mxGeometry relative="1" as="geometry" />
        </mxCell>
        <mxCell id="OGek03VZuu6lh82kYxaj-27" value="v1.1" style="ellipse;whiteSpace=wrap;html=1;aspect=fixed;strokeWidth=2;fillColor=#FFFFFF;fontStyle=3;strokeColor=#82b366;" parent="1" vertex="1">
          <mxGeometry x="240" y="70" width="60" height="60" as="geometry" />
        </mxCell>
        <mxCell id="OGek03VZuu6lh82kYxaj-32" style="edgeStyle=orthogonalEdgeStyle;rounded=0;orthogonalLoop=1;jettySize=auto;html=1;entryX=0.5;entryY=1;entryDx=0;entryDy=0;dashed=1;strokeWidth=2;exitX=1;exitY=0;exitDx=0;exitDy=0;" parent="1" source="OGek03VZuu6lh82kYxaj-29" target="OGek03VZuu6lh82kYxaj-31" edge="1">
          <mxGeometry relative="1" as="geometry" />
        </mxCell>
        <mxCell id="OGek03VZuu6lh82kYxaj-44" style="edgeStyle=orthogonalEdgeStyle;rounded=0;orthogonalLoop=1;jettySize=auto;html=1;entryX=0.5;entryY=1;entryDx=0;entryDy=0;dashed=1;strokeWidth=2;exitX=1;exitY=1;exitDx=0;exitDy=0;" parent="1" source="OGek03VZuu6lh82kYxaj-29" target="OGek03VZuu6lh82kYxaj-42" edge="1">
          <mxGeometry relative="1" as="geometry" />
        </mxCell>
        <mxCell id="OGek03VZuu6lh82kYxaj-29" value="&lt;b&gt;&lt;i&gt;s16&lt;/i&gt;&lt;/b&gt;" style="ellipse;whiteSpace=wrap;html=1;aspect=fixed;strokeWidth=2;fillColor=#FFFFFF;strokeColor=#d79b00;" parent="1" vertex="1">
          <mxGeometry x="240" y="550" width="60" height="60" as="geometry" />
        </mxCell>
        <mxCell id="OGek03VZuu6lh82kYxaj-39" style="edgeStyle=orthogonalEdgeStyle;rounded=0;orthogonalLoop=1;jettySize=auto;html=1;entryX=0.5;entryY=1;entryDx=0;entryDy=0;dashed=1;strokeWidth=2;exitX=1;exitY=0.5;exitDx=0;exitDy=0;" parent="1" source="OGek03VZuu6lh82kYxaj-29" target="OGek03VZuu6lh82kYxaj-36" edge="1">
          <mxGeometry relative="1" as="geometry" />
        </mxCell>
        <mxCell id="OGek03VZuu6lh82kYxaj-31" value="" style="ellipse;whiteSpace=wrap;html=1;aspect=fixed;strokeWidth=2;fillColor=#FFFFFF;strokeColor=#9673a6;" parent="1" vertex="1">
          <mxGeometry x="330" y="390" width="60" height="60" as="geometry" />
        </mxCell>
        <mxCell id="OGek03VZuu6lh82kYxaj-36" value="" style="ellipse;whiteSpace=wrap;html=1;aspect=fixed;strokeWidth=2;fillColor=#FFFFFF;strokeColor=#6c8ebf;gradientColor=none;" parent="1" vertex="1">
          <mxGeometry x="420" y="230" width="60" height="60" as="geometry" />
        </mxCell>
        <mxCell id="OGek03VZuu6lh82kYxaj-48" style="edgeStyle=orthogonalEdgeStyle;rounded=0;orthogonalLoop=1;jettySize=auto;html=1;entryX=0.5;entryY=0;entryDx=0;entryDy=0;dashed=1;strokeWidth=2;" parent="1" source="OGek03VZuu6lh82kYxaj-42" target="OGek03VZuu6lh82kYxaj-46" edge="1">
          <mxGeometry relative="1" as="geometry" />
        </mxCell>
        <mxCell id="OGek03VZuu6lh82kYxaj-42" value="v1.2" style="ellipse;whiteSpace=wrap;html=1;aspect=fixed;strokeWidth=2;fillColor=#FFFFFF;fontStyle=3;strokeColor=#82b366;" parent="1" vertex="1">
          <mxGeometry x="510" y="70" width="60" height="60" as="geometry" />
        </mxCell>
        <mxCell id="OGek03VZuu6lh82kYxaj-57" style="edgeStyle=orthogonalEdgeStyle;rounded=0;orthogonalLoop=1;jettySize=auto;html=1;entryX=0.5;entryY=1;entryDx=0;entryDy=0;dashed=1;strokeWidth=2;exitX=1;exitY=0;exitDx=0;exitDy=0;" parent="1" source="OGek03VZuu6lh82kYxaj-46" target="OGek03VZuu6lh82kYxaj-50" edge="1">
          <mxGeometry relative="1" as="geometry" />
        </mxCell>
        <mxCell id="OGek03VZuu6lh82kYxaj-58" style="edgeStyle=orthogonalEdgeStyle;rounded=0;orthogonalLoop=1;jettySize=auto;html=1;entryX=0.5;entryY=1;entryDx=0;entryDy=0;dashed=1;strokeWidth=2;" parent="1" source="OGek03VZuu6lh82kYxaj-46" target="OGek03VZuu6lh82kYxaj-54" edge="1">
          <mxGeometry relative="1" as="geometry" />
        </mxCell>
        <mxCell id="OGek03VZuu6lh82kYxaj-62" style="edgeStyle=orthogonalEdgeStyle;rounded=0;orthogonalLoop=1;jettySize=auto;html=1;entryX=0.5;entryY=1;entryDx=0;entryDy=0;dashed=1;strokeWidth=2;exitX=1;exitY=1;exitDx=0;exitDy=0;" parent="1" source="OGek03VZuu6lh82kYxaj-46" target="OGek03VZuu6lh82kYxaj-60" edge="1">
          <mxGeometry relative="1" as="geometry" />
        </mxCell>
        <mxCell id="OGek03VZuu6lh82kYxaj-46" value="&lt;b&gt;&lt;i&gt;s17&lt;/i&gt;&lt;/b&gt;" style="ellipse;whiteSpace=wrap;html=1;aspect=fixed;strokeWidth=2;fillColor=#FFFFFF;strokeColor=#d79b00;" parent="1" vertex="1">
          <mxGeometry x="600" y="550" width="60" height="60" as="geometry" />
        </mxCell>
        <mxCell id="OGek03VZuu6lh82kYxaj-50" value="" style="ellipse;whiteSpace=wrap;html=1;aspect=fixed;strokeWidth=2;fillColor=#FFFFFF;strokeColor=#9673a6;" parent="1" vertex="1">
          <mxGeometry x="690" y="390" width="60" height="60" as="geometry" />
        </mxCell>
        <mxCell id="OGek03VZuu6lh82kYxaj-54" value="" style="ellipse;whiteSpace=wrap;html=1;aspect=fixed;strokeWidth=2;fillColor=#FFFFFF;strokeColor=#6c8ebf;gradientColor=none;" parent="1" vertex="1">
          <mxGeometry x="780" y="230" width="60" height="60" as="geometry" />
        </mxCell>
        <mxCell id="OGek03VZuu6lh82kYxaj-66" style="edgeStyle=orthogonalEdgeStyle;rounded=0;orthogonalLoop=1;jettySize=auto;html=1;entryX=0.5;entryY=0;entryDx=0;entryDy=0;dashed=1;strokeWidth=2;" parent="1" source="OGek03VZuu6lh82kYxaj-60" target="OGek03VZuu6lh82kYxaj-64" edge="1">
          <mxGeometry relative="1" as="geometry" />
        </mxCell>
        <mxCell id="OGek03VZuu6lh82kYxaj-60" value="v1.3" style="ellipse;whiteSpace=wrap;html=1;aspect=fixed;strokeWidth=2;fillColor=#FFFFFF;fontStyle=3;strokeColor=#82b366;" parent="1" vertex="1">
          <mxGeometry x="870" y="70" width="60" height="60" as="geometry" />
        </mxCell>
        <mxCell id="OGek03VZuu6lh82kYxaj-64" value="&lt;b&gt;&lt;i&gt;s18&lt;/i&gt;&lt;/b&gt;" style="ellipse;whiteSpace=wrap;html=1;aspect=fixed;strokeWidth=2;fillColor=#FFFFFF;strokeColor=#d79b00;" parent="1" vertex="1">
          <mxGeometry x="960" y="550" width="60" height="60" as="geometry" />
        </mxCell>
        <mxCell id="OGek03VZuu6lh82kYxaj-67" value="1" style="text;html=1;strokeColor=none;fillColor=none;align=center;verticalAlign=middle;whiteSpace=wrap;rounded=0;fontStyle=3;fontColor=#FF0000;fontSize=15;" parent="1" vertex="1">
          <mxGeometry x="300" y="530" width="60" height="30" as="geometry" />
        </mxCell>
        <mxCell id="OGek03VZuu6lh82kYxaj-68" value="2" style="text;html=1;strokeColor=none;fillColor=none;align=center;verticalAlign=middle;whiteSpace=wrap;rounded=0;fontStyle=3;fontColor=#FF0000;fontSize=15;" parent="1" vertex="1">
          <mxGeometry x="390" y="550" width="60" height="30" as="geometry" />
        </mxCell>
        <mxCell id="OGek03VZuu6lh82kYxaj-69" value="3" style="text;html=1;strokeColor=none;fillColor=none;align=center;verticalAlign=middle;whiteSpace=wrap;rounded=0;fontStyle=3;fontColor=#FF0000;fontSize=15;" parent="1" vertex="1">
          <mxGeometry x="480" y="570" width="60" height="30" as="geometry" />
        </mxCell>
        <mxCell id="OGek03VZuu6lh82kYxaj-70" value="3" style="text;html=1;strokeColor=none;fillColor=none;align=center;verticalAlign=middle;whiteSpace=wrap;rounded=0;fontStyle=3;fontColor=#FF0000;fontSize=15;" parent="1" vertex="1">
          <mxGeometry x="840" y="570" width="60" height="30" as="geometry" />
        </mxCell>
        <mxCell id="OGek03VZuu6lh82kYxaj-71" value="2" style="text;html=1;strokeColor=none;fillColor=none;align=center;verticalAlign=middle;whiteSpace=wrap;rounded=0;fontStyle=3;fontColor=#FF0000;fontSize=15;" parent="1" vertex="1">
          <mxGeometry x="750" y="550" width="60" height="30" as="geometry" />
        </mxCell>
        <mxCell id="OGek03VZuu6lh82kYxaj-72" value="1" style="text;html=1;strokeColor=none;fillColor=none;align=center;verticalAlign=middle;whiteSpace=wrap;rounded=0;fontStyle=3;fontColor=#FF0000;fontSize=15;" parent="1" vertex="1">
          <mxGeometry x="660" y="530" width="60" height="30" as="geometry" />
        </mxCell>
      </root>
    </mxGraphModel>
  </diagram>
</mxfile>
